<?xml version="1.0" standalone="no"?>
<!DOCTYPE svg PUBLIC "-//W3C//DTD SVG 20010904//EN"
 "http://www.w3.org/TR/2001/REC-SVG-20010904/DTD/svg10.dtd">
<svg version="1.0" xmlns="http://www.w3.org/2000/svg"
 width="700.000000pt" height="700.000000pt" viewBox="0 0 700.000000 700.000000"
 preserveAspectRatio="xMidYMid meet">

<g transform="translate(0.000000,700.000000) scale(0.100000,-0.100000)"
fill="#000000" stroke="none">
<path d="M2302 5588 c-201 -8 -304 -29 -428 -88 -262 -125 -422 -365 -454
-677 -8 -75 -10 -506 -8 -1403 l4 -1295 23 -85 c96 -353 359 -579 724 -619
124 -14 2543 -15 2673 -1 409 43 697 331 743 742 11 101 16 2509 5 2643 -25
309 -192 566 -449 690 -49 24 -128 54 -175 66 l-85 23 -1200 6 c-660 3 -1278
2 -1373 -2z m819 -1016 c21 -41 39 -76 42 -78 2 -2 41 1 88 7 105 14 411 14
504 0 39 -6 73 -11 77 -11 4 0 25 34 45 76 21 42 43 78 49 81 26 10 459 -111
559 -156 59 -27 65 -33 121 -122 141 -227 262 -506 324 -746 56 -218 73 -370
74 -635 0 -177 -3 -240 -13 -252 -28 -33 -224 -155 -366 -227 -125 -63 -363
-159 -395 -159 -8 0 -115 161 -144 217 -9 18 -16 38 -16 45 0 7 44 32 98 56
53 23 108 50 120 60 l24 18 -27 18 c-26 17 -28 16 -98 -12 -256 -106 -547
-153 -818 -131 -196 15 -364 54 -541 125 -85 34 -88 34 -114 18 l-26 -18 24
-18 c12 -10 67 -37 121 -60 53 -24 97 -49 97 -56 0 -7 -7 -27 -16 -45 -27 -52
-135 -217 -143 -217 -11 0 -167 55 -239 84 -148 59 -480 251 -522 301 -21 26
-19 446 4 600 55 380 186 732 388 1046 51 78 61 87 114 111 97 43 507 159 548
155 14 -1 32 -25 57 -75z"/>
<path d="M2892 3654 c-124 -62 -182 -220 -136 -374 21 -73 108 -160 177 -179
280 -78 456 325 227 522 -74 63 -179 75 -268 31z"/>
<path d="M3894 3656 c-166 -77 -210 -313 -88 -473 56 -73 167 -109 261 -82 68
18 153 104 176 178 80 249 -132 478 -349 377z"/>
</g>
</svg>
